<svg xmlns="http://www.w3.org/2000/svg" viewBox="0 0 100 43.49"><defs><style>.cls-1{fill:#e54b4b;}</style></defs><title>Asset 3</title><g id="Layer_2" data-name="Layer 2"><g id="Layer_1-2" data-name="Layer 1"><path class="cls-1" d="M25.58,35a4.85,4.85,0,0,1-2.71.68,4.31,4.31,0,0,1-3-1.07,7.2,7.2,0,0,1-1.79-3.78l-1-4.46a28.93,28.93,0,0,0-1-3.59,4.52,4.52,0,0,0-1.42-2A4.13,4.13,0,0,0,12,20.05H7.78V30.34A7.91,7.91,0,0,0,8,32.78a1.67,1.67,0,0,0,1,1,7.93,7.93,0,0,0,2.35.35v.9q-2.05-.13-5.68-.13-3.84,0-5.72.13v-.9a7.93,7.93,0,0,0,2.35-.35,1.67,1.67,0,0,0,1-1,7.91,7.91,0,0,0,.27-2.45V8.15A7.91,7.91,0,0,0,3.35,5.7a1.67,1.67,0,0,0-1-1A7.93,7.93,0,0,0,0,4.3v-.9q1.88.13,5.46.13,1.75,0,3.85,0l2.89,0a15.32,15.32,0,0,1,5.92,1,8.11,8.11,0,0,1,3.65,2.77,6.81,6.81,0,0,1,1.22,4,8.39,8.39,0,0,1-.82,3.53,8.23,8.23,0,0,1-2.77,3.19,11.62,11.62,0,0,1-5.1,1.89l.55.09a10,10,0,0,1,3.21,1A5.11,5.11,0,0,1,20,22.74a10.31,10.31,0,0,1,1.15,3.08l1.11,4.56a14.67,14.67,0,0,0,.58,2.15,3,3,0,0,0,.7,1.15,1.44,1.44,0,0,0,1,.37,1.9,1.9,0,0,0,1.22-.38A8.51,8.51,0,0,0,27,32.35l.68.5A8.15,8.15,0,0,1,25.58,35ZM15.51,18.19a5.17,5.17,0,0,0,2.36-2.58,10.34,10.34,0,0,0,.66-3.89,7.87,7.87,0,0,0-1.75-5.55Q15,4.3,11.1,4.3A5.32,5.32,0,0,0,9,4.62,1.76,1.76,0,0,0,8,5.74a8.29,8.29,0,0,0-.26,2.4v11h3A9.66,9.66,0,0,0,15.51,18.19Z"/><path class="cls-1" d="M41.54,13.27a4.5,4.5,0,0,0-3.07-1q-3.17,0-4.43,1.59a2.74,2.74,0,0,1,2.1,2.73,2.28,2.28,0,0,1-.71,1.78,2.74,2.74,0,0,1-1.91.64,2.2,2.2,0,0,1-1.78-.76,3,3,0,0,1-.64-2,4,4,0,0,1,2.1-3.19,10.19,10.19,0,0,1,2.7-1.2,12.43,12.43,0,0,1,3.57-.48,10.61,10.61,0,0,1,3.23.45,5.33,5.33,0,0,1,2.18,1.23,5.53,5.53,0,0,1,1.41,2.44,15.08,15.08,0,0,1,.38,3.83V31.8A3.14,3.14,0,0,0,47,33.42a1.15,1.15,0,0,0,1.06.5,2.13,2.13,0,0,0,1-.24,5.77,5.77,0,0,0,1-.7l.5.76q-.79.59-1.31.92a4.76,4.76,0,0,1-1.2.52,5.66,5.66,0,0,1-1.57.2,3.6,3.6,0,0,1-3-1.08,4.59,4.59,0,0,1-.84-2.89,7.77,7.77,0,0,1-3.15,3.07,8.35,8.35,0,0,1-3.73.91,7.33,7.33,0,0,1-2.84-.54,4.59,4.59,0,0,1-2.06-1.66,4.83,4.83,0,0,1-.78-2.81,5,5,0,0,1,.83-2.9,7.43,7.43,0,0,1,2.34-2.11,32.92,32.92,0,0,1,4-2l2.14-.87a8.39,8.39,0,0,0,2.46-1.4,2.06,2.06,0,0,0,.75-1.53V16.82Q42.62,14.22,41.54,13.27Zm0,9.1q-.76.44-3.19,1.62a14.11,14.11,0,0,0-2.18,1.26A5.49,5.49,0,0,0,34.63,27,5.28,5.28,0,0,0,34,29.66a4,4,0,0,0,1,2.94,3.49,3.49,0,0,0,2.6,1q3,0,5-3.39V21.43A3.11,3.11,0,0,1,41.53,22.37Z"/><path class="cls-1" d="M60.63,32.87a1.92,1.92,0,0,0,1.07,1,5.68,5.68,0,0,0,2,.28v.94q-4.11-.17-5.42-.17t-5.42.17v-.94a5.68,5.68,0,0,0,2-.28,1.92,1.92,0,0,0,1.07-1,4.54,4.54,0,0,0,.34-1.94V5.37a4.77,4.77,0,0,0-.75-3,3.25,3.25,0,0,0-2.65-.93V.5q1.4.13,2.77.13A14.1,14.1,0,0,0,60.29,0V30.93A4.54,4.54,0,0,0,60.63,32.87Z"/><path class="cls-1" d="M74.22,32.87a1.92,1.92,0,0,0,1.07,1,5.68,5.68,0,0,0,2,.28v.94q-4.11-.17-5.42-.17t-5.42.17v-.94a5.68,5.68,0,0,0,2-.28,1.92,1.92,0,0,0,1.07-1,4.54,4.54,0,0,0,.34-1.94V5.37a4.77,4.77,0,0,0-.75-3,3.25,3.25,0,0,0-2.65-.93V.5q1.4.13,2.77.13A14.1,14.1,0,0,0,73.88,0V30.93A4.54,4.54,0,0,0,74.22,32.87Z"/><path class="cls-1" d="M96.59,12.17q2,0,3.41-.13v.9a2.67,2.67,0,0,0-1.59.81,6.63,6.63,0,0,0-1.31,2.34L89.76,35.3l-1.53,3.89a8,8,0,0,1-1.92,3.15,5,5,0,0,1-3.49,1.16,3.3,3.3,0,0,1-2.18-.71,2.43,2.43,0,0,1-.85-2,2.2,2.2,0,0,1,2.38-2.36,2.43,2.43,0,0,1,1.63.55,1.92,1.92,0,0,1,.64,1.55,2.17,2.17,0,0,1-1.2,2,.61.61,0,0,0,.26,0q2.47,0,3.8-3.49L88.88,35,80.76,15.49a5,5,0,0,0-1.52-2A2.8,2.8,0,0,0,77.72,13V12a32.71,32.71,0,0,0,4.39.28q1.92,0,5.81-.28V13a14.57,14.57,0,0,0-1.7.08,1.91,1.91,0,0,0-1,.41,1.31,1.31,0,0,0-.4,1.06,6.33,6.33,0,0,0,.57,2.21L90.76,30.1l4.94-13a6.45,6.45,0,0,0,.48-2.05,1.7,1.7,0,0,0-.8-1.55,5.6,5.6,0,0,0-2.54-.61V12Q95.19,12.17,96.59,12.17Z"/></g></g></svg>